# xmcd CD database file
#
# Track frame offsets:
#	150
#	15290
#	27751
#	38339
#	56877
#	74691
#	86388
#	108469
#	123080
#	139085
#	157831
#	171402
#
# Disc length: 2558 seconds
#
# Revision: 0
# Processed by: cddbd v1.5.2PL0 Copyright (c) Steve Scherf et al.
# Submitted via: CDex 1.70beta2
#
DISCID=9009fc0c
DTITLE=variou - 吹奏ジャズ
DYEAR=2016
DGENRE=Jazz
TTITLE0=Goodnight，My Love
TTITLE1=Moonlight Serenade
TTITLE2=In The Mood
TTITLE3=Sing，Sing，Sing，Pt．1
TTITLE4=Yesterdays
TTITLE5=Rug Cutter’s Swing
TTITLE6=Mona’s Mood
TTITLE7=Dance One
TTITLE8=I Can’t Give You Anything But Love，Baby
TTITLE9=Tee Jay
TTITLE10=Slow Freight
TTITLE11=Picture Of Heath
EXTD=YEAR: 2016
EXTT0=
EXTT1=
EXTT2=
EXTT3=
EXTT4=
EXTT5=
EXTT6=
EXTT7=
EXTT8=
EXTT9=
EXTT10=
EXTT11=
PLAYORDER=
